<mxfile host="app.diagrams.net" modified="2021-02-15T15:11:37.157Z" agent="5.0 (Windows NT 10.0; Win64; x64) AppleWebKit/537.36 (KHTML, like Gecko) Chrome/88.0.4324.150 Safari/537.36" etag="USrXYKqk21zKtzikPC1C" version="14.3.1" type="github">
  <diagram id="0xffNsh3KAgAyxDNN7ll" name="Page-1">
    <mxGraphModel dx="1185" dy="667" grid="1" gridSize="10" guides="1" tooltips="1" connect="1" arrows="1" fold="1" page="1" pageScale="1" pageWidth="850" pageHeight="1100" math="0" shadow="0">
      <root>
        <mxCell id="0" />
        <mxCell id="1" parent="0" />
        <mxCell id="WsodqEG6uwPFF5_1WzEi-1" value="" style="endArrow=none;html=1;" edge="1" parent="1">
          <mxGeometry width="50" height="50" relative="1" as="geometry">
            <mxPoint x="170" y="200" as="sourcePoint" />
            <mxPoint x="170" y="40" as="targetPoint" />
          </mxGeometry>
        </mxCell>
        <mxCell id="WsodqEG6uwPFF5_1WzEi-3" value="Input" style="text;html=1;align=center;verticalAlign=middle;resizable=0;points=[];autosize=1;" vertex="1" parent="1">
          <mxGeometry x="80" y="30" width="40" height="20" as="geometry" />
        </mxCell>
        <mxCell id="WsodqEG6uwPFF5_1WzEi-4" value="A" style="text;html=1;strokeColor=none;fillColor=none;align=center;verticalAlign=middle;whiteSpace=wrap;rounded=0;" vertex="1" parent="1">
          <mxGeometry x="40" y="50" width="40" height="20" as="geometry" />
        </mxCell>
        <mxCell id="WsodqEG6uwPFF5_1WzEi-5" value="B" style="text;html=1;align=center;verticalAlign=middle;resizable=0;points=[];autosize=1;" vertex="1" parent="1">
          <mxGeometry x="120" y="50" width="20" height="20" as="geometry" />
        </mxCell>
        <mxCell id="WsodqEG6uwPFF5_1WzEi-6" value="1" style="text;html=1;align=center;verticalAlign=middle;resizable=0;points=[];autosize=1;" vertex="1" parent="1">
          <mxGeometry x="50" y="80" width="20" height="20" as="geometry" />
        </mxCell>
        <mxCell id="WsodqEG6uwPFF5_1WzEi-7" value="0" style="text;html=1;align=center;verticalAlign=middle;resizable=0;points=[];autosize=1;" vertex="1" parent="1">
          <mxGeometry x="50" y="110" width="20" height="20" as="geometry" />
        </mxCell>
        <mxCell id="WsodqEG6uwPFF5_1WzEi-8" value="1" style="text;html=1;align=center;verticalAlign=middle;resizable=0;points=[];autosize=1;" vertex="1" parent="1">
          <mxGeometry x="50" y="140" width="20" height="20" as="geometry" />
        </mxCell>
        <mxCell id="WsodqEG6uwPFF5_1WzEi-9" value="0" style="text;html=1;align=center;verticalAlign=middle;resizable=0;points=[];autosize=1;" vertex="1" parent="1">
          <mxGeometry x="50" y="170" width="20" height="20" as="geometry" />
        </mxCell>
        <mxCell id="WsodqEG6uwPFF5_1WzEi-10" value="0" style="text;html=1;align=center;verticalAlign=middle;resizable=0;points=[];autosize=1;" vertex="1" parent="1">
          <mxGeometry x="120" y="80" width="20" height="20" as="geometry" />
        </mxCell>
        <mxCell id="WsodqEG6uwPFF5_1WzEi-11" value="1" style="text;html=1;align=center;verticalAlign=middle;resizable=0;points=[];autosize=1;" vertex="1" parent="1">
          <mxGeometry x="120" y="110" width="20" height="20" as="geometry" />
        </mxCell>
        <mxCell id="WsodqEG6uwPFF5_1WzEi-12" value="1" style="text;html=1;align=center;verticalAlign=middle;resizable=0;points=[];autosize=1;" vertex="1" parent="1">
          <mxGeometry x="120" y="140" width="20" height="20" as="geometry" />
        </mxCell>
        <mxCell id="WsodqEG6uwPFF5_1WzEi-13" value="0" style="text;html=1;align=center;verticalAlign=middle;resizable=0;points=[];autosize=1;" vertex="1" parent="1">
          <mxGeometry x="120" y="170" width="20" height="20" as="geometry" />
        </mxCell>
        <mxCell id="WsodqEG6uwPFF5_1WzEi-14" value="C" style="text;html=1;align=center;verticalAlign=middle;resizable=0;points=[];autosize=1;" vertex="1" parent="1">
          <mxGeometry x="200" y="50" width="20" height="20" as="geometry" />
        </mxCell>
        <mxCell id="WsodqEG6uwPFF5_1WzEi-15" value="D" style="text;html=1;align=center;verticalAlign=middle;resizable=0;points=[];autosize=1;" vertex="1" parent="1">
          <mxGeometry x="260" y="50" width="20" height="20" as="geometry" />
        </mxCell>
        <mxCell id="WsodqEG6uwPFF5_1WzEi-16" value="0" style="text;html=1;align=center;verticalAlign=middle;resizable=0;points=[];autosize=1;" vertex="1" parent="1">
          <mxGeometry x="200" y="80" width="20" height="20" as="geometry" />
        </mxCell>
        <mxCell id="WsodqEG6uwPFF5_1WzEi-17" value="1" style="text;html=1;align=center;verticalAlign=middle;resizable=0;points=[];autosize=1;" vertex="1" parent="1">
          <mxGeometry x="260" y="80" width="20" height="20" as="geometry" />
        </mxCell>
        <mxCell id="WsodqEG6uwPFF5_1WzEi-18" value="Inclusive&lt;br&gt;A or B" style="text;html=1;align=center;verticalAlign=middle;resizable=0;points=[];autosize=1;" vertex="1" parent="1">
          <mxGeometry x="240" y="15" width="60" height="30" as="geometry" />
        </mxCell>
        <mxCell id="WsodqEG6uwPFF5_1WzEi-19" value="1" style="text;html=1;align=center;verticalAlign=middle;resizable=0;points=[];autosize=1;" vertex="1" parent="1">
          <mxGeometry x="260" y="110" width="20" height="20" as="geometry" />
        </mxCell>
        <mxCell id="WsodqEG6uwPFF5_1WzEi-20" value="1" style="text;html=1;align=center;verticalAlign=middle;resizable=0;points=[];autosize=1;" vertex="1" parent="1">
          <mxGeometry x="260" y="140" width="20" height="20" as="geometry" />
        </mxCell>
        <mxCell id="WsodqEG6uwPFF5_1WzEi-21" value="0" style="text;html=1;align=center;verticalAlign=middle;resizable=0;points=[];autosize=1;" vertex="1" parent="1">
          <mxGeometry x="260" y="170" width="20" height="20" as="geometry" />
        </mxCell>
        <mxCell id="WsodqEG6uwPFF5_1WzEi-22" value="0" style="text;html=1;align=center;verticalAlign=middle;resizable=0;points=[];autosize=1;" vertex="1" parent="1">
          <mxGeometry x="200" y="110" width="20" height="20" as="geometry" />
        </mxCell>
        <mxCell id="WsodqEG6uwPFF5_1WzEi-23" value="1" style="text;html=1;align=center;verticalAlign=middle;resizable=0;points=[];autosize=1;" vertex="1" parent="1">
          <mxGeometry x="200" y="140" width="20" height="20" as="geometry" />
        </mxCell>
        <mxCell id="WsodqEG6uwPFF5_1WzEi-24" value="0" style="text;html=1;align=center;verticalAlign=middle;resizable=0;points=[];autosize=1;" vertex="1" parent="1">
          <mxGeometry x="200" y="170" width="20" height="20" as="geometry" />
        </mxCell>
        <mxCell id="WsodqEG6uwPFF5_1WzEi-25" value="A and B" style="text;html=1;align=center;verticalAlign=middle;resizable=0;points=[];autosize=1;" vertex="1" parent="1">
          <mxGeometry x="180" y="25" width="60" height="20" as="geometry" />
        </mxCell>
        <mxCell id="WsodqEG6uwPFF5_1WzEi-26" value="Exlusive&lt;br&gt;A or B" style="text;html=1;align=center;verticalAlign=middle;resizable=0;points=[];autosize=1;" vertex="1" parent="1">
          <mxGeometry x="300" y="15" width="60" height="30" as="geometry" />
        </mxCell>
        <mxCell id="WsodqEG6uwPFF5_1WzEi-27" value="E" style="text;html=1;align=center;verticalAlign=middle;resizable=0;points=[];autosize=1;" vertex="1" parent="1">
          <mxGeometry x="320" y="50" width="20" height="20" as="geometry" />
        </mxCell>
        <mxCell id="WsodqEG6uwPFF5_1WzEi-28" value="1" style="text;html=1;align=center;verticalAlign=middle;resizable=0;points=[];autosize=1;" vertex="1" parent="1">
          <mxGeometry x="320" y="80" width="20" height="20" as="geometry" />
        </mxCell>
        <mxCell id="WsodqEG6uwPFF5_1WzEi-29" value="1" style="text;html=1;align=center;verticalAlign=middle;resizable=0;points=[];autosize=1;" vertex="1" parent="1">
          <mxGeometry x="320" y="110" width="20" height="20" as="geometry" />
        </mxCell>
        <mxCell id="WsodqEG6uwPFF5_1WzEi-30" value="0" style="text;html=1;align=center;verticalAlign=middle;resizable=0;points=[];autosize=1;" vertex="1" parent="1">
          <mxGeometry x="320" y="140" width="20" height="20" as="geometry" />
        </mxCell>
        <mxCell id="WsodqEG6uwPFF5_1WzEi-31" value="0" style="text;html=1;align=center;verticalAlign=middle;resizable=0;points=[];autosize=1;" vertex="1" parent="1">
          <mxGeometry x="320" y="170" width="20" height="20" as="geometry" />
        </mxCell>
        <mxCell id="WsodqEG6uwPFF5_1WzEi-32" value="&lt;font style=&quot;font-size: 8px&quot;&gt;Case/&lt;br&gt;Scenario&amp;nbsp;&lt;/font&gt;" style="text;html=1;align=center;verticalAlign=middle;resizable=0;points=[];autosize=1;" vertex="1" parent="1">
          <mxGeometry y="25" width="50" height="40" as="geometry" />
        </mxCell>
        <mxCell id="WsodqEG6uwPFF5_1WzEi-33" value="W" style="text;html=1;align=center;verticalAlign=middle;resizable=0;points=[];autosize=1;" vertex="1" parent="1">
          <mxGeometry x="5" y="80" width="30" height="20" as="geometry" />
        </mxCell>
        <mxCell id="WsodqEG6uwPFF5_1WzEi-34" value="X" style="text;html=1;align=center;verticalAlign=middle;resizable=0;points=[];autosize=1;" vertex="1" parent="1">
          <mxGeometry x="10" y="110" width="20" height="20" as="geometry" />
        </mxCell>
        <mxCell id="WsodqEG6uwPFF5_1WzEi-35" value="Y" style="text;html=1;align=center;verticalAlign=middle;resizable=0;points=[];autosize=1;" vertex="1" parent="1">
          <mxGeometry x="10" y="140" width="20" height="20" as="geometry" />
        </mxCell>
        <mxCell id="WsodqEG6uwPFF5_1WzEi-36" value="Z" style="text;html=1;align=center;verticalAlign=middle;resizable=0;points=[];autosize=1;" vertex="1" parent="1">
          <mxGeometry x="10" y="170" width="20" height="20" as="geometry" />
        </mxCell>
        <mxCell id="WsodqEG6uwPFF5_1WzEi-37" value="" style="endArrow=none;html=1;" edge="1" parent="1">
          <mxGeometry width="50" height="50" relative="1" as="geometry">
            <mxPoint x="40" y="200" as="sourcePoint" />
            <mxPoint x="40" y="80" as="targetPoint" />
          </mxGeometry>
        </mxCell>
        <mxCell id="WsodqEG6uwPFF5_1WzEi-38" value="basic/native logic gates" style="text;html=1;align=center;verticalAlign=middle;resizable=0;points=[];autosize=1;" vertex="1" parent="1">
          <mxGeometry x="410" y="25" width="140" height="20" as="geometry" />
        </mxCell>
        <mxCell id="WsodqEG6uwPFF5_1WzEi-39" value="" style="verticalLabelPosition=bottom;shadow=0;dashed=0;align=center;html=1;verticalAlign=top;shape=mxgraph.electrical.logic_gates.buffer2;" vertex="1" parent="1">
          <mxGeometry x="430" y="60" width="100" height="60" as="geometry" />
        </mxCell>
        <mxCell id="WsodqEG6uwPFF5_1WzEi-40" value="Buffer (same output as input)" style="text;html=1;align=center;verticalAlign=middle;resizable=0;points=[];autosize=1;" vertex="1" parent="1">
          <mxGeometry x="530" y="80" width="170" height="20" as="geometry" />
        </mxCell>
        <mxCell id="WsodqEG6uwPFF5_1WzEi-41" value="Derived Gates (combining native logic gates)" style="text;html=1;align=center;verticalAlign=middle;resizable=0;points=[];autosize=1;" vertex="1" parent="1">
          <mxGeometry x="365" y="510" width="250" height="20" as="geometry" />
        </mxCell>
        <mxCell id="WsodqEG6uwPFF5_1WzEi-42" value="" style="verticalLabelPosition=bottom;shadow=0;dashed=0;align=center;html=1;verticalAlign=top;shape=mxgraph.electrical.logic_gates.buffer2;negating=1;" vertex="1" parent="1">
          <mxGeometry x="430" y="140" width="100" height="60" as="geometry" />
        </mxCell>
        <mxCell id="WsodqEG6uwPFF5_1WzEi-43" value="Inverter (invert input to get output)" style="text;html=1;align=center;verticalAlign=middle;resizable=0;points=[];autosize=1;" vertex="1" parent="1">
          <mxGeometry x="530" y="160" width="200" height="20" as="geometry" />
        </mxCell>
        <mxCell id="WsodqEG6uwPFF5_1WzEi-44" value="" style="verticalLabelPosition=bottom;shadow=0;dashed=0;align=center;html=1;verticalAlign=top;shape=mxgraph.electrical.logic_gates.logic_gate;operation=and;" vertex="1" parent="1">
          <mxGeometry x="425" y="220" width="100" height="60" as="geometry" />
        </mxCell>
        <mxCell id="WsodqEG6uwPFF5_1WzEi-45" value="AND (both input cases must be true)" style="text;html=1;align=center;verticalAlign=middle;resizable=0;points=[];autosize=1;" vertex="1" parent="1">
          <mxGeometry x="530" y="240" width="210" height="20" as="geometry" />
        </mxCell>
        <mxCell id="WsodqEG6uwPFF5_1WzEi-46" value="" style="verticalLabelPosition=bottom;shadow=0;dashed=0;align=center;html=1;verticalAlign=top;shape=mxgraph.electrical.logic_gates.logic_gate;operation=or;" vertex="1" parent="1">
          <mxGeometry x="425" y="310" width="100" height="60" as="geometry" />
        </mxCell>
        <mxCell id="WsodqEG6uwPFF5_1WzEi-47" value="Inclusive OR (either input case must be true)" style="text;html=1;align=center;verticalAlign=middle;resizable=0;points=[];autosize=1;" vertex="1" parent="1">
          <mxGeometry x="530" y="330" width="250" height="20" as="geometry" />
        </mxCell>
        <mxCell id="WsodqEG6uwPFF5_1WzEi-48" value="" style="verticalLabelPosition=bottom;shadow=0;dashed=0;align=center;html=1;verticalAlign=top;shape=mxgraph.electrical.logic_gates.logic_gate;operation=and;negating=1;" vertex="1" parent="1">
          <mxGeometry x="420" y="550" width="100" height="60" as="geometry" />
        </mxCell>
        <mxCell id="WsodqEG6uwPFF5_1WzEi-49" value="NAND (combining NOT and AND)" style="text;html=1;align=center;verticalAlign=middle;resizable=0;points=[];autosize=1;" vertex="1" parent="1">
          <mxGeometry x="520" y="570" width="200" height="20" as="geometry" />
        </mxCell>
        <mxCell id="WsodqEG6uwPFF5_1WzEi-50" value="" style="verticalLabelPosition=bottom;shadow=0;dashed=0;align=center;html=1;verticalAlign=top;shape=mxgraph.electrical.logic_gates.logic_gate;operation=and;" vertex="1" parent="1">
          <mxGeometry x="60" y="550" width="100" height="60" as="geometry" />
        </mxCell>
        <mxCell id="WsodqEG6uwPFF5_1WzEi-51" value="" style="verticalLabelPosition=bottom;shadow=0;dashed=0;align=center;html=1;verticalAlign=top;shape=mxgraph.electrical.logic_gates.buffer2;negating=1;" vertex="1" parent="1">
          <mxGeometry x="190" y="550" width="100" height="60" as="geometry" />
        </mxCell>
        <mxCell id="WsodqEG6uwPFF5_1WzEi-52" value="0" style="text;html=1;align=center;verticalAlign=middle;resizable=0;points=[];autosize=1;" vertex="1" parent="1">
          <mxGeometry x="30" y="560" width="20" height="20" as="geometry" />
        </mxCell>
        <mxCell id="WsodqEG6uwPFF5_1WzEi-53" value="1" style="text;html=1;align=center;verticalAlign=middle;resizable=0;points=[];autosize=1;" vertex="1" parent="1">
          <mxGeometry x="30" y="590" width="20" height="20" as="geometry" />
        </mxCell>
        <mxCell id="WsodqEG6uwPFF5_1WzEi-54" value="0" style="text;html=1;align=center;verticalAlign=middle;resizable=0;points=[];autosize=1;" vertex="1" parent="1">
          <mxGeometry x="160" y="570" width="20" height="20" as="geometry" />
        </mxCell>
        <mxCell id="WsodqEG6uwPFF5_1WzEi-55" value="1" style="text;html=1;align=center;verticalAlign=middle;resizable=0;points=[];autosize=1;" vertex="1" parent="1">
          <mxGeometry x="290" y="570" width="20" height="20" as="geometry" />
        </mxCell>
        <mxCell id="WsodqEG6uwPFF5_1WzEi-56" value="" style="verticalLabelPosition=bottom;shadow=0;dashed=0;align=center;html=1;verticalAlign=top;shape=mxgraph.electrical.logic_gates.logic_gate;operation=xor;" vertex="1" parent="1">
          <mxGeometry x="425" y="400" width="100" height="60" as="geometry" />
        </mxCell>
        <mxCell id="WsodqEG6uwPFF5_1WzEi-57" value="Exclusive OR/XOR (only one input must be true)" style="text;html=1;align=center;verticalAlign=middle;resizable=0;points=[];autosize=1;" vertex="1" parent="1">
          <mxGeometry x="530" y="420" width="270" height="20" as="geometry" />
        </mxCell>
      </root>
    </mxGraphModel>
  </diagram>
</mxfile>
